<svg height="436pt" viewBox="-27 0 436 436.2991" width="436pt" xmlns="http://www.w3.org/2000/svg"><path d="m75.242188 170.0625c0-26.390625-15.28125-47.785156-34.132813-47.785156s-34.136719 21.394531-34.136719 47.785156 15.285156 47.785156 34.136719 47.785156 34.132813-21.394531 34.132813-47.785156zm0 0" fill="#999"/><path d="m75.242188 170.0625h6.824218c-.011718-14.515625-4.152344-27.769531-11.265625-37.761719-3.566406-4.988281-7.902343-9.167969-12.925781-12.144531-5.011719-2.976562-10.753906-4.714844-16.765625-4.707031-6.015625-.007813-11.753906 1.730469-16.765625 4.707031-7.539062 4.476562-13.523438 11.609375-17.6875 20.21875-4.15625 8.628906-6.503906 18.800781-6.507812 29.6875.015624 14.515625 4.15625 27.769531 11.269531 37.761719 3.5625 4.988281 7.902343 9.167969 12.925781 12.144531 5.011719 2.976562 10.75 4.714844 16.765625 4.707031 6.011719.007813 11.75-1.730469 16.761719-4.707031 7.539062-4.476562 13.527344-11.609375 17.6875-20.21875 4.160156-8.628906 6.503906-18.800781 6.507812-29.6875h-13.652344c.015626 11.878906-3.484374 22.515625-8.726562 29.824219-2.613281 3.660156-5.628906 6.476562-8.769531 8.332031-3.15625 1.863281-6.398438 2.796875-9.808594 2.804688-3.414063-.007813-6.65625-.941407-9.8125-2.804688-4.710937-2.773438-9.148437-7.761719-12.347656-14.402344-3.203125-6.632812-5.152344-14.84375-5.148438-23.753906-.015625-11.878906 3.484375-22.515625 8.726563-29.824219 2.609375-3.660156 5.625-6.476562 8.769531-8.332031 3.15625-1.863281 6.398437-2.796875 9.8125-2.804688 3.410156.007813 6.652344.941407 9.808594 2.804688 4.710937 2.773438 9.148437 7.761719 12.347656 14.402344 3.203125 6.632812 5.152344 14.84375 5.148437 23.753906zm0 0" fill="#54596e"/><path d="m375.613281 170.0625c0-26.390625-15.28125-47.785156-34.132812-47.785156-18.851563 0-34.132813 21.394531-34.132813 47.785156s15.28125 47.785156 34.132813 47.785156c18.851562 0 34.132812-21.394531 34.132812-47.785156zm0 0" fill="#999"/><path d="m375.613281 170.0625h6.828125c-.015625-14.515625-4.152344-27.769531-11.269531-37.761719-3.5625-4.988281-7.898437-9.167969-12.925781-12.144531-5.011719-2.976562-10.75-4.714844-16.761719-4.707031-6.015625-.007813-11.753906 1.730469-16.765625 4.707031-7.539062 4.476562-13.527344 11.609375-17.6875 20.21875-4.160156 8.628906-6.503906 18.800781-6.507812 29.6875.011718 14.515625 4.152343 27.769531 11.265624 37.761719 3.566407 4.988281 7.902344 9.167969 12.925782 12.144531 5.015625 2.976562 10.753906 4.714844 16.765625 4.707031 6.011719.007813 11.753906-1.730469 16.765625-4.707031 7.539062-4.476562 13.523437-11.609375 17.6875-20.21875 4.15625-8.628906 6.503906-18.800781 6.507812-29.6875h-13.652344c.011719 11.878906-3.484374 22.515625-8.726562 29.824219-2.613281 3.660156-5.628906 6.476562-8.773438 8.332031-3.15625 1.863281-6.394531 2.796875-9.808593 2.804688-3.414063-.007813-6.652344-.941407-9.808594-2.804688-4.714844-2.773438-9.148437-7.761719-12.347656-14.402344-3.203125-6.632812-5.15625-14.84375-5.152344-23.753906-.011719-11.878906 3.484375-22.515625 8.726563-29.824219 2.613281-3.660156 5.628906-6.476562 8.773437-8.332031 3.15625-1.863281 6.394531-2.796875 9.808594-2.804688 3.414062.007813 6.652343.941407 9.808593 2.804688 4.714844 2.773438 9.148438 7.761719 12.347657 14.402344 3.203125 6.632812 5.15625 14.84375 5.152343 23.753906zm0 0" fill="#54596e"/><path d="m224.515625 8.085938-33.21875 4.964843-33.222656-4.964843c-13.242188-1.980469-26.859375-1.804688-39.734375 1.867187-42.652344 12.167969-70.40625 52.679687-70.40625 100.777344l-13.652344 182.210937c0 82.949219 74.066406 116.054688 157.011719 116.054688 82.945312 0 157.015625-33.105469 157.015625-116.054688l-13.65625-182.210937c0-48.097657-27.75-88.609375-70.40625-100.777344-12.871094-3.671875-26.492188-3.847656-39.730469-1.867187" fill="#999"/><path d="m224.515625 8.085938-1.007813-6.753907-32.210937 4.8125-32.214844-4.8125c-5.6875-.851562-11.476562-1.332031-17.296875-1.332031-8.460937 0-16.996094 1.011719-25.320312 3.390625-22.886719 6.515625-41.835938 20.714844-54.929688 39.582031-13.105468 18.871094-20.429687 42.398438-20.425781 67.757813h6.824219l-6.804688-.511719-13.652344 182.210938-.023437.511718c-.007813 21.746094 4.890625 40.613282 13.734375 56.449219 13.273438 23.800781 35.203125 40.484375 61.410156 51.082031 26.25 10.617188 56.914063 15.339844 88.695313 15.347656 42.363281-.027343 82.800781-8.363281 113.316406-28.011718 15.234375-9.828125 27.949219-22.566406 36.792969-38.417969 8.847656-15.835937 13.742187-34.703125 13.730468-56.449219l-.015624-.511718-13.65625-182.210938-6.808594.511719h6.828125c0-25.359375-7.320313-48.886719-20.425781-67.757813-13.097657-18.867187-32.046876-33.066406-54.933594-39.582031-8.324219-2.375-16.851563-3.390625-25.320313-3.390625-5.8125 0-11.605469.476562-17.300781 1.332031l1.015625 6.753907 1.015625 6.746093c5.082031-.761719 10.199219-1.179687 15.269531-1.179687 7.378907 0 14.636719.890625 21.574219 2.867187 19.765625 5.648438 36.019531 17.792969 47.464844 34.246094 11.429687 16.445313 17.988281 37.226563 17.988281 59.964844l.015625.511719 13.65625 182.210937 6.808594-.511719h-6.828125c-.007813 19.726563-4.371094 36.105469-12.003907 49.800782-11.445312 20.507812-30.484374 35.285156-54.613281 45.074218-24.09375 9.773438-53.140625 14.359375-83.566406 14.355469-40.582031.023437-78.65625-8.191406-105.910156-25.835937-13.652344-8.816407-24.632813-19.90625-32.273438-33.597657-7.632812-13.691406-11.996093-30.070312-12.007812-49.796875h-6.824219l6.804688.507813 13.65625-182.210938.019531-.507812c0-22.738281 6.558593-43.519531 17.988281-59.96875 11.445312-16.453125 27.699219-28.597657 47.464844-34.246094 6.9375-1.980469 14.191406-2.867187 21.574218-2.867187 5.066407 0 10.1875.417968 15.28125 1.179687l33.214844 4.964844c.695313.105469 1.328125.105469 2.019532 0l33.21875-4.964844z" fill="#54596e"/><path d="m41.1875 292.117188-.082031 1.085937c.050781 19.609375 4.40625 35.902344 12.007812 49.535156 7.640625 13.691407 18.621094 24.78125 32.273438 33.597657 27.210937 17.617187 65.207031 25.835937 105.722656 25.835937h.1875c30.425781.003906 59.472656-4.585937 83.566406-14.355469 24.128907-9.789062 43.167969-24.566406 54.613281-45.074218 7.597657-13.636719 11.957032-29.925782 12.003907-49.535157l-.078125-1.082031c-20.175782 53.664062-82.144532 75.914062-150.105469 75.914062-67.964844 0-129.9375-22.261718-150.109375-75.921874" fill="#8b8c90"/><path d="m346.726562 271.859375c-1.15625 7.199219-2.953124 13.949219-5.328124 20.265625l.082031 1.078125c-.050781 19.609375-4.40625 35.902344-12.003907 49.535156-11.445312 20.507813-30.488281 35.289063-54.613281 45.078125-24.097656 9.769532-53.144531 14.359375-83.570312 14.351563-.058594 0-.121094 0-.183594 0-40.515625 0-78.511719-8.214844-105.722656-25.832031-13.65625-8.820313-24.636719-19.90625-32.277344-33.597657-7.597656-13.636719-11.957031-29.925781-12.003906-49.535156l.082031-1.089844c-2.375-6.3125-4.167969-13.054687-5.324219-20.257812l-1.582031 21.085937c0 82.949219 74.066406 116.054688 157.011719 116.054688 82.945312 0 157.015625-33.105469 157.015625-116.054688z" fill="#54596e"/><path d="m269.960938 231.503906h-157.332032c-10.816406 0-18.839844-10.890625-16.5-22.371094l7.832032-38.328124c1.71875-8.410157 8.578124-14.394532 16.5-14.394532h141.667968c7.917969 0 14.777344 5.984375 16.5 14.394532l7.832032 38.328124c2.339843 11.480469-5.6875 22.371094-16.5 22.371094zm0 0" fill="#54596e"/><path d="m150.335938 187.128906c0 5.65625-4.585938 10.242188-10.242188 10.242188s-10.238281-4.585938-10.238281-10.242188 4.582031-10.238281 10.238281-10.238281 10.242188 4.582031 10.242188 10.238281zm0 0" fill="#f99"/><path d="m252.734375 187.128906c0 5.65625-4.585937 10.242188-10.238281 10.242188-5.65625 0-10.242188-4.585938-10.242188-10.242188s4.585938-10.238281 10.242188-10.238281c5.652344 0 10.238281 4.582031 10.238281 10.238281zm0 0" fill="#f99"/><path d="m214.480469 204.195312h-46.371094c-21.128906 0-38.253906 17.125-38.253906 38.25v43.671876h122.878906v-43.671876c0-21.125-17.125-38.25-38.253906-38.25zm0 0" fill="#fff"/><path d="m214.480469 204.195312v-6.824218h-46.371094c-24.902344 0-45.078125 20.175781-45.082031 45.074218v43.671876c0 1.820312.710937 3.535156 2 4.824218 1.289062 1.292969 3.003906 2 4.828125 2h122.878906c1.824219 0 3.535156-.707031 4.828125-2 1.289062-1.289062 2-3.003906 2-4.824218v-43.671876c-.007812-24.898437-20.179688-45.074218-45.082031-45.074218v13.648437c8.699219.007813 16.515625 3.511719 22.222656 9.207031 5.699219 5.707032 9.203125 13.523438 9.203125 22.222657v36.839843h-109.226562v-36.839843c.003906-8.699219 3.507812-16.515625 9.207031-22.222657 5.707031-5.695312 13.519531-9.199218 22.222656-9.207031h46.371094zm0 0" fill="#54596e"/><path d="m129.855469 286.117188 13.652343 84.328124c0 32.601563 21.394532 59.03125 47.785157 59.03125 26.394531 0 47.789062-26.429687 47.789062-59.03125l13.652344-84.328124" fill="#aaa"/><path d="m123.113281 287.203125 13.65625 84.332031 6.738281-1.089844h-6.828124c.011718 17.792969 5.8125 34.027344 15.519531 46.035157 9.664062 11.980469 23.550781 19.828125 39.09375 19.820312 15.546875.007813 29.4375-7.839843 39.097656-19.820312 9.707031-12.007813 15.507813-28.242188 15.515625-46.035157h-6.824219l6.738281 1.089844 13.652344-84.332031c.601563-3.722656-1.925781-7.226563-5.648437-7.828125-3.722657-.601562-7.230469 1.925781-7.828125 5.648438l-13.65625 84.328124-.085938 1.09375c.007813 14.804688-4.886718 28.085938-12.476562 37.441407-7.628906 9.382812-17.636719 14.753906-28.484375 14.761719-10.847657-.007813-20.851563-5.378907-28.484375-14.761719-7.589844-9.355469-12.484375-22.636719-12.472656-37.441407l-.089844-1.09375-13.652344-84.328124c-.601562-3.722657-4.109375-6.25-7.828125-5.648438-3.722656.605469-6.253906 4.109375-5.652344 7.828125zm0 0" fill="#54596e"/><path d="m252.734375 288.199219c-15.832031-6.203125-37.519531-10.027344-61.433594-10.027344-23.9375 0-45.632812 3.828125-61.472656 10.039063" fill="#999"/><g fill="#54596e"><path d="m255.222656 281.84375c-16.902344-6.605469-39.269531-10.484375-63.921875-10.496094-24.679687.015625-47.054687 3.898438-63.964843 10.507813-3.511719 1.375-5.242188 5.335937-3.863282 8.847656 1.375 3.511719 5.335938 5.242187 8.847656 3.867187 14.769532-5.808593 35.78125-9.585937 58.980469-9.570312 23.175781-.015625 44.179688 3.753906 58.945313 9.558594 3.507812 1.375 7.46875-.355469 8.84375-3.867188 1.375-3.511718-.355469-7.472656-3.867188-8.847656zm0 0"/><path d="m227.355469 226.582031c-5.710938-3.296875-14.355469.976563-19.304688 9.546875-4.949219 8.570313-4.328125 18.191406 1.386719 21.492188 5.714844 3.296875 14.355469-.976563 19.304688-9.546875 4.949218-8.570313 4.328124-18.191407-1.386719-21.492188zm0 0"/><path d="m174.132812 236.097656c-4.949218-8.570312-13.59375-12.84375-19.308593-9.546875-5.710938 3.300781-6.332031 12.921875-1.382813 21.492188 4.945313 8.570312 13.589844 12.84375 19.304688 9.546875 5.714844-3.300782 6.332031-12.921875 1.386718-21.492188zm0 0"/><path d="m198.121094 60.835938v-47.785157c0-3.773437-3.054688-6.828125-6.828125-6.828125-3.769531 0-6.824219 3.054688-6.824219 6.828125v47.785157c0 3.769531 3.054688 6.828124 6.824219 6.828124 3.773437 0 6.828125-3.058593 6.828125-6.828124"/></g></svg>